<mxfile host="app.diagrams.net" modified="2024-01-11T04:12:40.367Z" agent="Mozilla/5.0 (Windows NT 10.0; Win64; x64) AppleWebKit/537.36 (KHTML, like Gecko) Chrome/120.0.0.0 Safari/537.36" etag="8bypwE6-BOAK8JPxlfV0" version="22.1.18" type="google">
  <diagram name="Страница — 1" id="VRicChxPhD_UCcBNBDPx">
    <mxGraphModel grid="1" page="1" gridSize="10" guides="1" tooltips="1" connect="1" arrows="1" fold="1" pageScale="1" pageWidth="827" pageHeight="1169" math="0" shadow="0">
      <root>
        <mxCell id="0" />
        <mxCell id="1" parent="0" />
        <mxCell id="WZVzZGF7R0zL9x7gL25s-18" value="" style="edgeStyle=orthogonalEdgeStyle;rounded=0;orthogonalLoop=1;jettySize=auto;html=1;labelBackgroundColor=none;strokeColor=#A8201A;fontColor=default;" edge="1" parent="1" source="WZVzZGF7R0zL9x7gL25s-1" target="WZVzZGF7R0zL9x7gL25s-17">
          <mxGeometry relative="1" as="geometry">
            <Array as="points">
              <mxPoint x="920" y="270" />
              <mxPoint x="920" y="100" />
            </Array>
          </mxGeometry>
        </mxCell>
        <mxCell id="WZVzZGF7R0zL9x7gL25s-45" value="" style="edgeStyle=orthogonalEdgeStyle;rounded=0;orthogonalLoop=1;jettySize=auto;html=1;labelBackgroundColor=none;strokeColor=#A8201A;fontColor=default;" edge="1" parent="1" source="WZVzZGF7R0zL9x7gL25s-1" target="WZVzZGF7R0zL9x7gL25s-44">
          <mxGeometry relative="1" as="geometry">
            <Array as="points">
              <mxPoint x="920" y="270" />
              <mxPoint x="920" y="200" />
            </Array>
          </mxGeometry>
        </mxCell>
        <mxCell id="WZVzZGF7R0zL9x7gL25s-49" value="" style="edgeStyle=orthogonalEdgeStyle;rounded=0;orthogonalLoop=1;jettySize=auto;html=1;labelBackgroundColor=none;strokeColor=#A8201A;fontColor=default;" edge="1" parent="1" source="WZVzZGF7R0zL9x7gL25s-1" target="WZVzZGF7R0zL9x7gL25s-48">
          <mxGeometry relative="1" as="geometry">
            <Array as="points">
              <mxPoint x="920" y="270" />
              <mxPoint x="920" y="290" />
            </Array>
          </mxGeometry>
        </mxCell>
        <mxCell id="WZVzZGF7R0zL9x7gL25s-52" value="" style="edgeStyle=orthogonalEdgeStyle;rounded=0;orthogonalLoop=1;jettySize=auto;html=1;labelBackgroundColor=none;strokeColor=#A8201A;fontColor=default;" edge="1" parent="1" source="WZVzZGF7R0zL9x7gL25s-1" target="WZVzZGF7R0zL9x7gL25s-51">
          <mxGeometry relative="1" as="geometry">
            <Array as="points">
              <mxPoint x="920" y="270" />
              <mxPoint x="920" y="360" />
            </Array>
          </mxGeometry>
        </mxCell>
        <mxCell id="WZVzZGF7R0zL9x7gL25s-1" value="Преподаватель" style="shape=umlActor;verticalLabelPosition=bottom;verticalAlign=top;html=1;outlineConnect=0;labelBackgroundColor=none;fillColor=#FAE5C7;strokeColor=#0F8B8D;fontColor=#143642;" vertex="1" parent="1">
          <mxGeometry x="950" y="240" width="30" height="60" as="geometry" />
        </mxCell>
        <mxCell id="WZVzZGF7R0zL9x7gL25s-14" value="" style="edgeStyle=orthogonalEdgeStyle;rounded=0;orthogonalLoop=1;jettySize=auto;html=1;labelBackgroundColor=none;strokeColor=#A8201A;fontColor=default;entryX=0;entryY=0.5;entryDx=0;entryDy=0;" edge="1" parent="1" source="WZVzZGF7R0zL9x7gL25s-3" target="WZVzZGF7R0zL9x7gL25s-17">
          <mxGeometry relative="1" as="geometry">
            <Array as="points">
              <mxPoint x="120" y="280" />
              <mxPoint x="120" y="100" />
            </Array>
            <mxPoint x="460" y="80" as="targetPoint" />
          </mxGeometry>
        </mxCell>
        <mxCell id="WZVzZGF7R0zL9x7gL25s-27" value="" style="edgeStyle=orthogonalEdgeStyle;rounded=0;orthogonalLoop=1;jettySize=auto;html=1;entryX=0;entryY=0.5;entryDx=0;entryDy=0;labelBackgroundColor=none;strokeColor=#A8201A;fontColor=default;" edge="1" parent="1" target="WZVzZGF7R0zL9x7gL25s-26">
          <mxGeometry relative="1" as="geometry">
            <mxPoint x="120" y="280" as="sourcePoint" />
            <mxPoint x="255" y="350" as="targetPoint" />
            <Array as="points">
              <mxPoint x="120" y="205" />
            </Array>
          </mxGeometry>
        </mxCell>
        <mxCell id="WZVzZGF7R0zL9x7gL25s-29" value="" style="edgeStyle=orthogonalEdgeStyle;rounded=0;orthogonalLoop=1;jettySize=auto;html=1;labelBackgroundColor=none;strokeColor=#A8201A;fontColor=default;" edge="1" parent="1" source="WZVzZGF7R0zL9x7gL25s-3" target="WZVzZGF7R0zL9x7gL25s-28">
          <mxGeometry relative="1" as="geometry">
            <Array as="points">
              <mxPoint x="120" y="280" />
              <mxPoint x="120" y="290" />
            </Array>
          </mxGeometry>
        </mxCell>
        <mxCell id="WZVzZGF7R0zL9x7gL25s-31" value="" style="edgeStyle=orthogonalEdgeStyle;rounded=0;orthogonalLoop=1;jettySize=auto;html=1;labelBackgroundColor=none;strokeColor=#A8201A;fontColor=default;" edge="1" parent="1" source="WZVzZGF7R0zL9x7gL25s-3" target="WZVzZGF7R0zL9x7gL25s-30">
          <mxGeometry relative="1" as="geometry">
            <Array as="points">
              <mxPoint x="120" y="280" />
              <mxPoint x="120" y="370" />
            </Array>
          </mxGeometry>
        </mxCell>
        <mxCell id="WZVzZGF7R0zL9x7gL25s-3" value="Учащийся" style="shape=umlActor;verticalLabelPosition=bottom;verticalAlign=top;html=1;outlineConnect=0;labelBackgroundColor=none;fillColor=#FAE5C7;strokeColor=#0F8B8D;fontColor=#143642;" vertex="1" parent="1">
          <mxGeometry x="60" y="250" width="30" height="60" as="geometry" />
        </mxCell>
        <mxCell id="WZVzZGF7R0zL9x7gL25s-12" value="Платформа" style="swimlane;whiteSpace=wrap;html=1;fillColor=#FAE5C7;strokeColor=#0F8B8D;labelBackgroundColor=none;fontColor=#143642;" vertex="1" parent="1">
          <mxGeometry x="210" y="20" width="685" height="450" as="geometry" />
        </mxCell>
        <mxCell id="WZVzZGF7R0zL9x7gL25s-17" value="Регистрация на платформе" style="ellipse;whiteSpace=wrap;html=1;verticalAlign=top;labelBackgroundColor=none;fillColor=#FAE5C7;strokeColor=#0F8B8D;fontColor=#143642;" vertex="1" parent="WZVzZGF7R0zL9x7gL25s-12">
          <mxGeometry x="237.5" y="60" width="180" height="40" as="geometry" />
        </mxCell>
        <mxCell id="WZVzZGF7R0zL9x7gL25s-26" value="Запись на курсы" style="ellipse;whiteSpace=wrap;html=1;verticalAlign=top;labelBackgroundColor=none;fillColor=#FAE5C7;strokeColor=#0F8B8D;fontColor=#143642;" vertex="1" parent="WZVzZGF7R0zL9x7gL25s-12">
          <mxGeometry x="117.5" y="170" width="140" height="30" as="geometry" />
        </mxCell>
        <mxCell id="WZVzZGF7R0zL9x7gL25s-28" value="Просмотр содержания курсов" style="ellipse;whiteSpace=wrap;html=1;verticalAlign=top;labelBackgroundColor=none;fillColor=#FAE5C7;strokeColor=#0F8B8D;fontColor=#143642;" vertex="1" parent="WZVzZGF7R0zL9x7gL25s-12">
          <mxGeometry x="120" y="255" width="140" height="35" as="geometry" />
        </mxCell>
        <mxCell id="WZVzZGF7R0zL9x7gL25s-30" value="Предоставление решения на платформе" style="ellipse;whiteSpace=wrap;html=1;verticalAlign=top;labelBackgroundColor=none;fillColor=#FAE5C7;strokeColor=#0F8B8D;fontColor=#143642;" vertex="1" parent="WZVzZGF7R0zL9x7gL25s-12">
          <mxGeometry x="102.5" y="330" width="197.5" height="40" as="geometry" />
        </mxCell>
        <mxCell id="WZVzZGF7R0zL9x7gL25s-44" value="Создание и редактирование учебных курсов" style="ellipse;whiteSpace=wrap;html=1;verticalAlign=top;labelBackgroundColor=none;fillColor=#FAE5C7;strokeColor=#0F8B8D;fontColor=#143642;" vertex="1" parent="WZVzZGF7R0zL9x7gL25s-12">
          <mxGeometry x="365.63" y="160" width="147.5" height="60" as="geometry" />
        </mxCell>
        <mxCell id="WZVzZGF7R0zL9x7gL25s-48" value="Проверка задания" style="ellipse;whiteSpace=wrap;html=1;verticalAlign=top;labelBackgroundColor=none;fillColor=#FAE5C7;strokeColor=#0F8B8D;fontColor=#143642;" vertex="1" parent="WZVzZGF7R0zL9x7gL25s-12">
          <mxGeometry x="356.57" y="255" width="165.63" height="30" as="geometry" />
        </mxCell>
        <mxCell id="WZVzZGF7R0zL9x7gL25s-51" value="Просмотр&lt;br&gt;&amp;nbsp;успеваемости учащихся" style="ellipse;whiteSpace=wrap;html=1;verticalAlign=top;labelBackgroundColor=none;fillColor=#FAE5C7;strokeColor=#0F8B8D;fontColor=#143642;" vertex="1" parent="WZVzZGF7R0zL9x7gL25s-12">
          <mxGeometry x="350" y="320" width="174.07" height="40" as="geometry" />
        </mxCell>
        <mxCell id="nfl0AHQidMthdD2_E9j2-4" value="Просмотр&lt;br&gt;&amp;nbsp;успеваемости" style="ellipse;whiteSpace=wrap;html=1;verticalAlign=top;labelBackgroundColor=none;fillColor=#FAE5C7;strokeColor=#0F8B8D;fontColor=#143642;" vertex="1" parent="WZVzZGF7R0zL9x7gL25s-12">
          <mxGeometry x="109.99999999999994" y="390" width="167.5" height="40" as="geometry" />
        </mxCell>
        <mxCell id="nfl0AHQidMthdD2_E9j2-11" value="Управление&lt;br&gt;&amp;nbsp;данными профиля&amp;nbsp;" style="ellipse;whiteSpace=wrap;html=1;verticalAlign=top;labelBackgroundColor=none;fillColor=#FAE5C7;strokeColor=#0F8B8D;fontColor=#143642;" vertex="1" parent="WZVzZGF7R0zL9x7gL25s-12">
          <mxGeometry x="240" y="110" width="175" height="40" as="geometry" />
        </mxCell>
        <mxCell id="nfl0AHQidMthdD2_E9j2-13" value="" style="edgeStyle=orthogonalEdgeStyle;rounded=0;orthogonalLoop=1;jettySize=auto;html=1;labelBackgroundColor=none;strokeColor=#A8201A;fontColor=default;" edge="1" parent="WZVzZGF7R0zL9x7gL25s-12" target="nfl0AHQidMthdD2_E9j2-11">
          <mxGeometry relative="1" as="geometry">
            <Array as="points">
              <mxPoint x="-120" y="260" />
              <mxPoint x="-90" y="260" />
              <mxPoint x="-90" y="130" />
            </Array>
            <mxPoint x="240" y="130" as="targetPoint" />
            <mxPoint x="-120" y="260" as="sourcePoint" />
          </mxGeometry>
        </mxCell>
        <mxCell id="nfl0AHQidMthdD2_E9j2-3" value="" style="edgeStyle=orthogonalEdgeStyle;rounded=0;orthogonalLoop=1;jettySize=auto;html=1;labelBackgroundColor=none;strokeColor=#A8201A;fontColor=default;" edge="1" parent="1">
          <mxGeometry relative="1" as="geometry">
            <Array as="points">
              <mxPoint x="120" y="280" />
              <mxPoint x="120" y="430" />
              <mxPoint x="320" y="430" />
            </Array>
            <mxPoint x="90" y="280" as="sourcePoint" />
            <mxPoint x="320" y="430" as="targetPoint" />
          </mxGeometry>
        </mxCell>
        <mxCell id="nfl0AHQidMthdD2_E9j2-12" value="" style="edgeStyle=orthogonalEdgeStyle;rounded=0;orthogonalLoop=1;jettySize=auto;html=1;labelBackgroundColor=none;strokeColor=#A8201A;fontColor=default;entryX=1;entryY=0.5;entryDx=0;entryDy=0;" edge="1" parent="1" target="nfl0AHQidMthdD2_E9j2-11">
          <mxGeometry relative="1" as="geometry">
            <mxPoint x="950" y="270" as="sourcePoint" />
            <mxPoint x="635" y="110" as="targetPoint" />
            <Array as="points">
              <mxPoint x="960" y="270" />
              <mxPoint x="920" y="270" />
              <mxPoint x="920" y="150" />
            </Array>
          </mxGeometry>
        </mxCell>
      </root>
    </mxGraphModel>
  </diagram>
</mxfile>
